<svg xmlns="http://www.w3.org/2000/svg" viewBox="0 0 500 500"><g id="freepik--background-simple--inject-285"><path d="M231.4,36.66c-21.37,8.72-42.18,18.86-64.56,24.6C142,67.63,117.28,62,92.26,65.7,17,76.73,2.52,170.94,19,232c17,63,43,70,30,88-19.65,27.21-34.11,61.68-21.41,95,9.08,23.87,30.71,41.5,54.72,50.22,35.22,12.79,73.81,9.61,109-1.1,34.38-10.46,68.26-26.06,104.94-25.09,46.43,1.22,92.4,24.61,138.91,11.27C481.86,436.94,493.7,389.41,493,346c-1-62-46-87-46-121,0-20,9.55-37.07,15.23-55.62,6.09-19.85,8.51-41.19,3.69-61.58-8.65-36.65-39.76-65.13-75-78.34-40.07-15-87.2-14.69-128.16-3.7A266.32,266.32,0,0,0,231.4,36.66Z" style="fill:#E3A39C"></path><path d="M231.4,36.66c-21.37,8.72-42.18,18.86-64.56,24.6C142,67.63,117.28,62,92.26,65.7,17,76.73,2.52,170.94,19,232c17,63,43,70,30,88-19.65,27.21-34.11,61.68-21.41,95,9.08,23.87,30.71,41.5,54.72,50.22,35.22,12.79,73.81,9.61,109-1.1,34.38-10.46,68.26-26.06,104.94-25.09,46.43,1.22,92.4,24.61,138.91,11.27C481.86,436.94,493.7,389.41,493,346c-1-62-46-87-46-121,0-20,9.55-37.07,15.23-55.62,6.09-19.85,8.51-41.19,3.69-61.58-8.65-36.65-39.76-65.13-75-78.34-40.07-15-87.2-14.69-128.16-3.7A266.32,266.32,0,0,0,231.4,36.66Z" style="fill:#fff;opacity:0.7000000000000001"></path></g><g id="freepik--home-screen--inject-285"><rect x="221.13" y="77.94" width="155.32" height="349.32" rx="16.64" style="fill:none;stroke:#263238;stroke-miterlimit:10"></rect><rect x="224.83" y="380.49" width="147.93" height="40.68" rx="10.63" style="fill:none;stroke:#d4d4d4;stroke-miterlimit:10"></rect><rect x="227.77" y="191.2" width="142.05" height="74.18" rx="9.11" style="fill:none;stroke:#d4d4d4;stroke-miterlimit:10"></rect><rect x="267.33" y="196.12" width="27.33" height="27.33" rx="5" style="fill:#d4d4d4"></rect><rect x="267.33" y="232.79" width="27.33" height="27.33" rx="5" style="fill:#d4d4d4"></rect><rect x="231.32" y="232.79" width="27.33" height="27.33" rx="5" style="fill:#d4d4d4"></rect><rect x="231.32" y="196.12" width="27.33" height="27.33" rx="5" style="fill:#d4d4d4"></rect><rect x="267.33" y="275.32" width="27.33" height="27.33" rx="5" style="fill:#d4d4d4"></rect><rect x="267.33" y="311.99" width="27.33" height="27.33" rx="5" style="fill:#d4d4d4"></rect><rect x="231.32" y="311.99" width="27.33" height="27.33" rx="5" style="fill:#d4d4d4"></rect><rect x="231.32" y="275.32" width="27.33" height="27.33" rx="5" style="fill:#d4d4d4"></rect><rect x="338.69" y="196.12" width="27.33" height="27.33" rx="5" style="fill:#d4d4d4"></rect><rect x="338.69" y="232.79" width="27.33" height="27.33" rx="5" style="fill:#d4d4d4"></rect><rect x="302.68" y="232.79" width="27.33" height="27.33" rx="5" style="fill:#d4d4d4"></rect><rect x="302.68" y="196.12" width="27.33" height="27.33" rx="5" style="fill:#d4d4d4"></rect><rect x="231.32" y="109" width="64" height="64" rx="7.3" style="fill:#d4d4d4"></rect><path d="M283,125l-13.66,27.82-19.73-8.6L232.12,169a7.29,7.29,0,0,0,6.5,4H288a7.3,7.3,0,0,0,7.3-7.3V131.57Z" style="fill:#c4c4c4"></path><circle cx="248.64" cy="126" r="9.61" style="fill:#c4c4c4"></circle><rect x="302.81" y="275.32" width="64" height="64" rx="7.3" style="fill:#d4d4d4"></rect><path d="M354.53,291.31l-13.66,27.83-19.73-8.6-17.53,24.79a7.3,7.3,0,0,0,6.51,4h49.39a7.3,7.3,0,0,0,7.3-7.3V297.89Z" style="fill:#c4c4c4"></path><circle cx="320.13" cy="292.32" r="9.61" transform="translate(-110.23 344.57) rotate(-49.32)" style="fill:#c4c4c4"></circle><rect x="265.03" y="387.05" width="27.33" height="27.33" rx="5" style="fill:none;stroke:#d4d4d4;stroke-miterlimit:10"></rect><rect x="301.04" y="387.05" width="27.33" height="27.33" rx="5" style="fill:none;stroke:#d4d4d4;stroke-miterlimit:10"></rect><rect x="337.06" y="387.05" width="27.33" height="27.33" rx="5" style="fill:none;stroke:#d4d4d4;stroke-miterlimit:10"></rect><rect x="229.02" y="387.05" width="27.33" height="27.33" rx="5" style="fill:none;stroke:#d4d4d4;stroke-miterlimit:10"></rect><rect x="339.48" y="109" width="27.33" height="27.33" rx="5" style="fill:#d4d4d4"></rect><rect x="339.48" y="145.67" width="27.33" height="27.33" rx="5" style="fill:#d4d4d4"></rect><rect x="303.47" y="145.67" width="27.33" height="27.33" rx="5" style="fill:#d4d4d4"></rect><rect x="303.47" y="109" width="27.33" height="27.33" rx="5" style="fill:#d4d4d4"></rect><rect x="308.47" y="114" width="17.33" height="17.33" rx="3.17" style="fill:none;stroke:#fff;stroke-miterlimit:10"></rect><circle cx="317.13" cy="122.67" r="5" style="fill:none;stroke:#fff;stroke-miterlimit:10"></circle><rect x="265.9" y="354.69" width="61.2" height="16.01" rx="8.01" style="fill:none;stroke:#d4d4d4;stroke-miterlimit:10"></rect><path d="M277.34,362.7a1.72,1.72,0,1,0-1.72,1.71A1.72,1.72,0,0,0,277.34,362.7Z" style="fill:#d4d4d4"></path><path d="M288.21,362.7a1.72,1.72,0,1,0-1.72,1.71A1.72,1.72,0,0,0,288.21,362.7Z" style="fill:#d4d4d4"></path><path d="M299.07,362.7a1.72,1.72,0,1,0-1.71,1.71A1.72,1.72,0,0,0,299.07,362.7Z" style="fill:#d4d4d4"></path><path d="M309.94,362.7a1.72,1.72,0,1,0-1.72,1.71A1.72,1.72,0,0,0,309.94,362.7Z" style="fill:#d4d4d4"></path><path d="M320.81,362.7a1.72,1.72,0,1,0-1.72,1.71A1.72,1.72,0,0,0,320.81,362.7Z" style="fill:#d4d4d4"></path></g><g id="freepik--Device--inject-285"><rect x="45.11" y="77.94" width="155.32" height="349.32" rx="16.64" style="fill:#E3A39C"></rect><rect x="48.81" y="380.49" width="147.93" height="40.68" rx="10.63" style="fill:#fff;opacity:0.8"></rect><rect x="125" y="109" width="64" height="64" rx="7.3" style="fill:#263238"></rect><circle cx="157" cy="141" r="26" style="fill:#666"></circle><circle cx="157" cy="141" r="2.94" style="fill:#fff"></circle><line x1="155.67" y1="142.28" x2="148.9" y2="151.59" style="fill:none;stroke:#fff;stroke-miterlimit:10"></line><line x1="157.36" y1="142.28" x2="147.63" y2="123.68" style="fill:none;stroke:#fff;stroke-miterlimit:10"></line><rect x="89.01" y="109" width="27.33" height="27.33" rx="5" style="fill:#263238"></rect><rect x="89.01" y="145.67" width="27.33" height="27.33" rx="5" style="fill:#263238"></rect><rect x="53" y="145.67" width="27.33" height="27.33" rx="5" style="fill:#263238"></rect><rect x="89.01" y="267.52" width="27.33" height="27.33" rx="5" style="fill:#263238"></rect><rect x="125.03" y="267.52" width="27.33" height="27.33" rx="5" style="fill:#263238"></rect><rect x="161.04" y="267.52" width="27.33" height="27.33" rx="5" style="fill:#263238"></rect><rect x="53" y="267.52" width="27.33" height="27.33" rx="5" style="fill:#263238"></rect><path d="M58.52,268.65a3,3,0,1,0-3,3A3,3,0,0,0,58.52,268.65Z" style="fill:#fff;stroke:#263238;stroke-miterlimit:10"></path><path d="M95.46,268.65a3,3,0,1,0-3,3A3,3,0,0,0,95.46,268.65Z" style="fill:#fff;stroke:#263238;stroke-miterlimit:10"></path><path d="M131.39,268.65a3,3,0,1,0-3,3A3,3,0,0,0,131.39,268.65Z" style="fill:#fff;stroke:#263238;stroke-miterlimit:10"></path><path d="M168.11,268.65a3,3,0,1,0-3,3A3,3,0,0,0,168.11,268.65Z" style="fill:#fff;stroke:#263238;stroke-miterlimit:10"></path><rect x="89.01" y="387.05" width="27.33" height="27.33" rx="5" style="fill:none;stroke:#263238;stroke-miterlimit:10"></rect><rect x="125.03" y="387.05" width="27.33" height="27.33" rx="5" style="fill:none;stroke:#263238;stroke-miterlimit:10"></rect><rect x="161.04" y="387.05" width="27.33" height="27.33" rx="5" style="fill:none;stroke:#263238;stroke-miterlimit:10"></rect><rect x="53" y="387.05" width="27.33" height="27.33" rx="5" style="fill:none;stroke:#263238;stroke-miterlimit:10"></rect><path d="M58.52,387.5a3,3,0,1,0-3,3A3,3,0,0,0,58.52,387.5Z" style="fill:#fff;stroke:#263238;stroke-miterlimit:10"></path><path d="M95.46,387.5a3,3,0,1,0-3,3A3,3,0,0,0,95.46,387.5Z" style="fill:#fff;stroke:#263238;stroke-miterlimit:10"></path><path d="M131.39,387.5a3,3,0,1,0-3,3A3,3,0,0,0,131.39,387.5Z" style="fill:#fff;stroke:#263238;stroke-miterlimit:10"></path><path d="M168.11,387.5a3,3,0,1,0-3,3A3,3,0,0,0,168.11,387.5Z" style="fill:#fff;stroke:#263238;stroke-miterlimit:10"></path><rect x="89.01" y="312.65" width="27.33" height="27.33" rx="5" style="fill:#263238"></rect><rect x="125.03" y="312.65" width="27.33" height="27.33" rx="5" style="fill:#263238"></rect><rect x="161.04" y="312.65" width="27.33" height="27.33" rx="5" style="fill:#263238"></rect><rect x="53" y="312.65" width="27.33" height="27.33" rx="5" style="fill:#263238"></rect><path d="M58.52,315a3,3,0,1,0-3,3A3,3,0,0,0,58.52,315Z" style="fill:#fff;stroke:#263238;stroke-miterlimit:10"></path><path d="M95.46,315a3,3,0,1,0-3,3A3,3,0,0,0,95.46,315Z" style="fill:#fff;stroke:#263238;stroke-miterlimit:10"></path><path d="M131.39,315a3,3,0,1,0-3,3A3,3,0,0,0,131.39,315Z" style="fill:#fff;stroke:#263238;stroke-miterlimit:10"></path><path d="M168.11,315a3,3,0,1,0-3,3A3,3,0,0,0,168.11,315Z" style="fill:#fff;stroke:#263238;stroke-miterlimit:10"></path><rect x="53" y="109" width="27.33" height="27.33" rx="5" style="fill:#263238"></rect><path d="M58.52,147.12a3,3,0,1,0-3,3A3,3,0,0,0,58.52,147.12Z" style="fill:#fff;stroke:#263238;stroke-miterlimit:10"></path><circle cx="92.48" cy="147.12" r="2.98" style="fill:#fff;stroke:#263238;stroke-miterlimit:10"></circle><path d="M58.52,110.28a3,3,0,1,0-3,3A3,3,0,0,0,58.52,110.28Z" style="fill:#fff;stroke:#263238;stroke-miterlimit:10"></path><circle cx="92.48" cy="110.28" r="2.98" style="fill:#fff;stroke:#263238;stroke-miterlimit:10"></circle><rect x="58" y="114" width="17.33" height="17.33" rx="3.17" style="fill:none;stroke:#fff;stroke-miterlimit:10"></rect><circle cx="66.67" cy="122.67" r="5" style="fill:none;stroke:#fff;stroke-miterlimit:10"></circle><rect x="52.98" y="185.26" width="135.39" height="68.45" rx="8.65" style="fill:#263238"></rect><path d="M69.11,200.81v.57H66.89v-.69c0-1.88-.72-3-2.39-3s-2.4,1.11-2.4,3c0,4.71,7,5.16,7,11.06,0,3.17-1.53,5.24-4.73,5.24s-4.71-2.07-4.71-5.24v-1.2h2.19v1.32c0,1.88.78,3,2.46,3s2.45-1.11,2.45-3c0-4.68-7-5.12-7-11,0-3.23,1.5-5.24,4.65-5.24S69.11,197.64,69.11,200.81Z" style="fill:#fff"></path><path d="M73.54,212.53l-.81,4.22H70.58l4-21H78l4,21H79.65l-.81-4.22Zm.3-2h4.67l-2.36-12.1Z" style="fill:#fff"></path><path d="M85.7,216.75V197.91H81.84v-2.13h10v2.13H88v18.84Z" style="fill:#fff"></path><path d="M74.52,229.12c0,6.32-7.1,8.59-7.13,13.42v.33h6.89V245h-9.2v-1.8c0-6.76,7.1-8.08,7.1-14,0-2.16-.72-3.3-2.46-3.3s-2.45,1.23-2.45,3.09v1.85H65.08v-1.7c0-3.21,1.47-5.33,4.7-5.33S74.52,225.91,74.52,229.12Z" style="fill:#fff"></path><path d="M86.29,229v.66c0,2.12-.75,3.68-2.4,4.31,1.74.69,2.4,2.34,2.4,4.43V240c0,3.23-1.68,5.24-5,5.24s-4.94-2-4.94-5.24V238.4c0-2.12.66-3.71,2.43-4.43-1.71-.66-2.43-2.19-2.43-4.31V229c0-3.24,1.71-5.18,4.94-5.18S86.29,225.76,86.29,229Zm-7.58.06v1c0,2,1,2.93,2.63,2.93s2.64-.9,2.64-2.93v-1c0-2.16-1-3.15-2.64-3.15S78.71,226.9,78.71,229.06Zm0,9.07v1.77c0,2.16,1,3.18,2.63,3.18s2.61-1,2.64-3.18v-1.77c0-2-.9-3-2.64-3S78.71,236.1,78.71,238.13Z" style="fill:#fff"></path><line x1="137.22" y1="199.56" x2="178.59" y2="199.56" style="fill:none;stroke:#858585;stroke-miterlimit:10"></line><rect x="107.89" y="210.9" width="4.64" height="4.64" style="fill:#858585"></rect><rect x="118.9" y="210.9" width="4.64" height="4.64" style="fill:#858585"></rect><rect x="129.91" y="210.9" width="4.64" height="4.64" style="fill:#858585"></rect><rect x="140.92" y="210.9" width="4.64" height="4.64" style="fill:#858585"></rect><rect x="151.94" y="210.9" width="4.64" height="4.64" style="fill:#858585"></rect><rect x="162.95" y="210.9" width="4.64" height="4.64" style="fill:#858585"></rect><rect x="173.96" y="210.9" width="4.64" height="4.64" style="fill:#858585"></rect><rect x="107.89" y="223.56" width="4.64" height="4.64" style="fill:#858585"></rect><rect x="118.9" y="223.56" width="4.64" height="4.64" style="fill:#fff"></rect><rect x="129.91" y="223.56" width="4.64" height="4.64" style="fill:#858585"></rect><rect x="140.92" y="223.56" width="4.64" height="4.64" style="fill:#858585"></rect><rect x="151.94" y="223.56" width="4.64" height="4.64" style="fill:#858585"></rect><rect x="162.95" y="223.56" width="4.64" height="4.64" style="fill:#858585"></rect><rect x="173.96" y="223.56" width="4.64" height="4.64" style="fill:#858585"></rect><rect x="107.89" y="236.23" width="4.64" height="4.64" style="fill:#858585"></rect><rect x="118.9" y="236.23" width="4.64" height="4.64" style="fill:#858585"></rect><rect x="129.91" y="236.23" width="4.64" height="4.64" style="fill:#858585"></rect><rect x="140.92" y="236.23" width="4.64" height="4.64" style="fill:#858585"></rect><rect x="151.94" y="236.23" width="4.64" height="4.64" style="fill:#858585"></rect><rect x="162.95" y="236.23" width="4.64" height="4.64" style="fill:#858585"></rect><rect x="173.96" y="236.23" width="4.64" height="4.64" style="fill:#858585"></rect><rect x="89.88" y="354.69" width="61.2" height="16.01" rx="8.01" style="fill:#fff;opacity:0.8"></rect><path d="M101.32,362.7a1.72,1.72,0,1,0-1.71,1.71A1.72,1.72,0,0,0,101.32,362.7Z" style="fill:#E3A39C"></path><path d="M112.19,362.7a1.72,1.72,0,1,0-1.72,1.71A1.72,1.72,0,0,0,112.19,362.7Z" style="fill:#666"></path><path d="M123.05,362.7a1.72,1.72,0,1,0-1.71,1.71A1.71,1.71,0,0,0,123.05,362.7Z" style="fill:#666"></path><path d="M133.92,362.7a1.72,1.72,0,1,0-1.71,1.71A1.72,1.72,0,0,0,133.92,362.7Z" style="fill:#666"></path><path d="M144.79,362.7a1.72,1.72,0,1,0-1.72,1.71A1.72,1.72,0,0,0,144.79,362.7Z" style="fill:#666"></path><path d="M191.19,70H54.36A16.64,16.64,0,0,0,37.72,86.64V418.56A16.64,16.64,0,0,0,54.36,435.2H191.19a16.64,16.64,0,0,0,16.64-16.64V86.64A16.64,16.64,0,0,0,191.19,70Zm9.25,340.62a16.64,16.64,0,0,1-16.64,16.64h-122a16.64,16.64,0,0,1-16.65-16.64v-316A16.64,16.64,0,0,1,61.76,77.94h22.7l1.41,6.56a8.56,8.56,0,0,0,8.38,6.76H155a8.56,8.56,0,0,0,8.38-6.76l1.41-6.56h19a16.64,16.64,0,0,1,16.64,16.64Z" style="fill:#263238;stroke:#263238;stroke-miterlimit:10;stroke-width:1.6935px"></path></g><g id="freepik--Character--inject-285"><path d="M365.25,173l-5.75-1.75s-3,6.75-3.25,8.25S365.25,173,365.25,173Z" style="fill:#fff;stroke:#263238;stroke-miterlimit:10"></path><path d="M356,173s-4.5,1.75-4.5,2.75,1.75,6.75,2.5,6.75S356,173,356,173Z" style="fill:#fff;stroke:#263238;stroke-miterlimit:10"></path><path d="M360.5,172.78s-5.25-1.5-5.75-.5-.5,9-.5,9a8.59,8.59,0,0,0,3.25-1C358.5,179.53,360.5,172.78,360.5,172.78Z" style="fill:#fff;stroke:#263238;stroke-miterlimit:10"></path><path d="M384.5,196.53,373.75,187s-3-8.75-4.25-11.75-2.5-3.5-3.25-3.25-6.75,5.5-9,6.75-5.75,3.75-5.75,3.75-1,1,1.75,1,7.5-3,7.5-3,2,5.25,3.75,7a8.18,8.18,0,0,0,4.5,2L381,206Z" style="fill:#fff;stroke:#263238;stroke-miterlimit:10"></path><path d="M373.75,187s-1.25-6-2.25-7.75-5.75-1.75-9.25-2.5-4.25.5-3.5,1.5,7.5,3,7.5,3,.25,6.75,1.5,8,4,1.5,4,1.5" style="fill:#fff;stroke:#263238;stroke-miterlimit:10"></path><path d="M432,291.78s4.75,45,6.5,50.75,9.75,23.25,11.5,34.75,6,60.33,6.75,62.58a11.83,11.83,0,0,1,.75,3l-1.25,1.75s-33.5.75-34.25,0,.5-4.5.5-4.5,9.25-5.75,12.5-7.5,6.5-4.25,6.75-8.25-2.5-18.08-6-28.83S424,368.78,420.25,355s-17-62-17-62Z" style="fill:#fff;stroke:#263238;stroke-miterlimit:10"></path><path d="M457.5,442.86a11.83,11.83,0,0,0-.75-3c-.18-.53-.55-3.61-1.05-8.14a104.35,104.35,0,0,1-13.2.39l-1-4.75-.6,0c-1.22,2.32-3.56,4-5.9,5.23-3.25,1.75-12.5,7.5-12.5,7.5s-1.25,3.75-.5,4.5,34.25,0,34.25,0Z" style="fill:#E3A39C;stroke:#263238;stroke-miterlimit:10"></path><path d="M422,444.61c.75.75,34.25,0,34.25,0l1.25-1.75a4,4,0,0,0-.1-.68l-35.53.42C421.72,443.47,421.69,444.3,422,444.61Z" style="fill:#fff;stroke:#263238;stroke-miterlimit:10"></path><path d="M388.5,296s2.75,16.5,5,25.25,7,28,7,28,.5,21.5,1,29.75,3,30.75,3.5,33.5.25,12,.25,12a44.58,44.58,0,0,1-11.5,8.5c-9,4.8-15.25,7.25-16.5,8s.5,3.25,1.75,3.75,37.5,0,37.5,0,2.5-.25,2-6.25,1-33.25,1-37.25,6-29.25,4.25-43-2.5-16.5-2.5-16.5l-.75-46.25L387.75,294Z" style="fill:#fff;stroke:#263238;stroke-miterlimit:10"></path><path d="M406.25,431.53a9.26,9.26,0,0,0-1-3.75c-1-2-1.75-1.5-1.75-1.5h0a49.38,49.38,0,0,1-9.71,6.75c-9,4.8-15.25,7.25-16.5,8s.5,3.25,1.75,3.75,37.5,0,37.5,0,2.5-.25,2-6.25c-.12-1.41-.12-4-.07-7.17A79.62,79.62,0,0,1,406.25,431.53Z" style="fill:#E3A39C;stroke:#263238;stroke-miterlimit:10"></path><path d="M416.5,444.78s1.41-.14,1.9-2.75H376.84a4.25,4.25,0,0,0,2.16,2.75C380.25,445.28,416.5,444.78,416.5,444.78Z" style="fill:#fff;stroke:#263238;stroke-miterlimit:10"></path><polygon points="434.25 274.28 437 293.03 426.5 293.53 434.25 274.28" style="fill:#8c8c8c;stroke:#263238;stroke-miterlimit:10"></polygon><path d="M394,232.53s-6.25,11.25-9.5,31.75-1.75,27-1.75,27a91.56,91.56,0,0,0,22,4.5,100.78,100.78,0,0,0,24.75-1.5s4-11.75,6.25-16.75,6.25-15,4.25-26.5-5-18-5-18Z" style="fill:#8c8c8c;stroke:#263238;stroke-miterlimit:10"></path><path d="M383,289.28h-3.25v3L380,294l1.25.75v3s2-.25,3-.25a3.49,3.49,0,0,1,2,1l1.25-.75,1.75,2,1.25-.5s.5,4,2,2.25,2-2.75,3-2.75a19.3,19.3,0,0,1,2.5.25s.75-2.5,3.25-.25l2.5,2.25,2-1,2.5,1,1.5-.5H412s5,2.25,5.25,1.5.75-2,.75-2l1.5.25a2.19,2.19,0,0,1,1.5-.5c1,0,2,1.25,3.5,0a2.84,2.84,0,0,1,2.75-.75l1.5-.5,2.25-.25-.25-2.75,3.25,1.75,2-2,1-2.25-4.07-1H429.5l-2,.75-1,.75-3.5-.75h-2.75l-6,2.25H412.5c-3.5-1.75-3.75-1.5-5.5-1.5a14.62,14.62,0,0,0-3.5.5l-2.75.25-2-.25a6.66,6.66,0,0,0-2-1,19.44,19.44,0,0,0-3.25-.25s1.75,1.5-1.75-.75-4.25-2.25-5.5-2.25a3.85,3.85,0,0,0-2,.5Z" style="fill:#fff;stroke:#263238;stroke-miterlimit:10"></path><path d="M401.18,245.14a21.19,21.19,0,0,0,1.57,5.64,15.66,15.66,0,0,0,10,8.75" style="fill:none;stroke:#263238;stroke-miterlimit:10"></path><path d="M401.5,234.28a34.8,34.8,0,0,0-.58,8" style="fill:none;stroke:#263238;stroke-miterlimit:10"></path><path d="M408,289.55c-.19,1.5-.29,2.23-.29,2.23" style="fill:none;stroke:#263238;stroke-miterlimit:10"></path><path d="M417,234.78s-5.5,26.75-7,39c-.71,5.8-1.25,10.15-1.63,13.11" style="fill:none;stroke:#263238;stroke-miterlimit:10"></path><path d="M391.81,253.8c-1.58,8-2.88,16.31-2.31,19.73,1.25,7.5,18,8,18.75,7.75" style="fill:none;stroke:#263238;stroke-miterlimit:10"></path><path d="M396,235s-1.69,6.76-3.37,14.73" style="fill:none;stroke:#263238;stroke-miterlimit:10"></path><polyline points="436.75 242.53 421.5 244.53 421.75 246.03 436.25 244.78" style="fill:none;stroke:#263238;stroke-miterlimit:10"></polyline><path d="M395.75,199,376,188.78l-5.5,13.75s21.5,16.75,23,17.5S395.75,199,395.75,199Z" style="fill:#E3A39C;stroke:#263238;stroke-miterlimit:10"></path><path d="M407,164s-13.25,31.75-14.5,46.25-1.25,24.5-1.25,24.5l46-.25S443,201,444.75,181s-8.75-25.5-19.25-25.5S409.25,158.78,407,164Z" style="fill:#E3A39C;stroke:#263238;stroke-miterlimit:10"></path><path d="M373,117.59s-9.08-3.35-11.71,2.63,9.08,16.73,17,16.73,7.64-13.86,4.54-17.45S373,117.59,373,117.59Z" style="fill:#263238;stroke:#263238;stroke-linecap:round;stroke-linejoin:round"></path><path d="M378.26,123.09s-1.44,7.4-.48,11.47,3.58,5,3.58,7.16-2.39,3.83-1.43,6c1.41,3.18,3.82,2.87,3.82,2.87s6.69,8.84,9.8,9.08,7.89-3.59,7.89-3.59l5.25,8.84s7.41-12.42,2.39-22.94-11.71-13.38-18.16-15.29S378.26,123.09,378.26,123.09Z" style="fill:#fff;stroke:#263238;stroke-linecap:round;stroke-linejoin:round"></path><path d="M384.9,139.49c-.59-1.06-.67-2.15-.18-2.42s1.36.38,1.95,1.45.66,2.14.17,2.41S385.48,140.56,384.9,139.49Z" style="fill:#263238"></path><path d="M388.12,150.23A7.07,7.07,0,0,0,392.3,149a4,4,0,0,0,1.56-3.77" style="fill:none;stroke:#263238;stroke-linecap:round;stroke-linejoin:round"></path><path d="M381,135.63a2.65,2.65,0,0,1,2.29-2.95c2.63-.49,3.78.49,3.78.49" style="fill:none;stroke:#263238;stroke-linecap:round;stroke-linejoin:round"></path><path d="M374.43,120s7.89,7.65,14.34,9.32a84.07,84.07,0,0,1,8.84,2.63s12.19,14.33,9.8,22-4.06,10.52-3.82,13.86,3.82,4.78,1,7.41-4.06,1.19-4.06,1.19,3.35,2.63,6.93,2.63,5.26-5.73,8.36-11.47,3.35-7.88,9.08-7.17,13.63,12.19,14.82,19.12S441.82,200,441.82,200a66.74,66.74,0,0,0,11-6.45c6.93-4.78,7.17-15.53,5.26-24.37s-10.51-16.73-16.73-24.86-11.95-20.55-19.11-34.17-15.06-16.25-25.81-12.66S376.1,109,376.1,109s-5-3.83-9.08,1S374.43,120,374.43,120Z" style="fill:#263238;stroke:#263238;stroke-linecap:round;stroke-linejoin:round"></path><path d="M422.42,152.51a8.41,8.41,0,0,1-.09,4" style="fill:none;stroke:#8c8c8c;stroke-miterlimit:10"></path><path d="M400.92,132.46a41.9,41.9,0,0,1,14.72,8.36,20.13,20.13,0,0,1,6.22,9.3" style="fill:none;stroke:#8c8c8c;stroke-miterlimit:10"></path><path d="M449.53,186.78a23.71,23.71,0,0,1-1.45,3.21" style="fill:none;stroke:#8c8c8c;stroke-miterlimit:10"></path><path d="M392.49,121.89a35.47,35.47,0,0,0,5.42,2.21c11.71,3.67,29.1,10,41.81,29.1,9.33,14,11.81,22.93,10.75,29.88" style="fill:none;stroke:#8c8c8c;stroke-miterlimit:10"></path><path d="M382.52,113.06s1.82,3.64,7,7.08" style="fill:none;stroke:#8c8c8c;stroke-miterlimit:10"></path><rect x="348.43" y="164.19" width="2.37" height="34.64" rx="0.76" transform="translate(-43.52 206.47) rotate(-31.07)" style="fill:#E3A39C;stroke:#263238;stroke-miterlimit:10"></rect><path d="M364.75,202.78,361,198.53s-.25-1.75-3-6-5.5-5-6.75-7.25-2.5-5.25-3.75-5.25h-1.25a2.32,2.32,0,0,0-3,1.75c-.75,2.5-2.5,5.75-1.5,7.25s1.75,7.25,2.5,10,12.5,6.75,12.5,6.75l7.25,3.75Z" style="fill:#fff;stroke:#263238;stroke-miterlimit:10"></path><path d="M346.25,180s-1.5,1.25.25,4,2.75,6.25,4,8.5" style="fill:#fff;stroke:#263238;stroke-miterlimit:10"></path><path d="M421.5,165.53s-7.25.25-12.5,9.25-11.5,44-11.5,44l-34.75-18.5L360.5,220s12.5,7.75,20,10.75,23.93,5.44,27.18,5.44,9.42-6.11,10.67-8.86S430,185.28,430,185.28" style="fill:#E3A39C;stroke:#263238;stroke-miterlimit:10"></path></g><g id="freepik--Floor--inject-285"><line x1="278.56" y1="445" x2="484" y2="445" style="fill:none;stroke:#263238;stroke-miterlimit:10"></line><line x1="29.18" y1="445" x2="269.72" y2="445" style="fill:none;stroke:#263238;stroke-miterlimit:10"></line><line x1="17" y1="445" x2="22.94" y2="445" style="fill:none;stroke:#263238;stroke-miterlimit:10"></line></g></svg>